<svg width="75" height="75" viewBox="0 0 75 75" fill="none" xmlns="http://www.w3.org/2000/svg">
<g clip-path="url(#clip0_105_121)">
<path d="M66.7969 53.5947C65.944 53.9179 65.0024 53.917 64.1499 53.593C63.2977 53.2686 62.5934 52.6434 62.1706 51.8354C59.5154 47.8607 56.5834 44.0653 53.7653 40.1885L52.5434 38.5596C49.1877 43.0555 45.832 47.3721 42.7696 51.8518C42.3706 52.6241 41.7047 53.225 40.8955 53.5426C40.0863 53.8604 39.1893 53.873 38.3716 53.5786L50.9634 36.6863L39.2511 21.4228C40.0942 21.1184 41.0165 21.1142 41.8623 21.411C42.7081 21.7078 43.4256 22.2873 43.8937 23.0518C46.614 27.0264 49.6277 30.822 52.6248 34.8456C55.6386 30.8545 58.6195 27.0427 61.4051 23.1006C61.8061 22.3409 62.4727 21.7552 63.2777 21.4548C64.0825 21.1545 64.9699 21.1605 65.7706 21.4717L61.2258 27.4988C59.1896 30.1865 57.186 32.8906 55.0685 35.5133C54.8977 35.6662 54.7611 35.8531 54.6677 36.0623C54.5742 36.2715 54.5259 36.4979 54.5259 36.727C54.5259 36.9558 54.5742 37.1823 54.6677 37.3915C54.7611 37.6007 54.8977 37.7876 55.0685 37.9405C58.9617 43.1044 62.8222 48.2844 66.7969 53.5947Z" fill="black"/>
<path d="M8.20312 36.4746C8.5452 34.8457 8.75698 33.07 9.22936 31.4086C12.0475 21.3905 23.5317 17.2204 31.432 23.4267C36.0583 27.0593 37.2149 32.2069 36.987 38.006H10.9235C10.5 48.3662 17.9769 54.6214 27.5389 51.4286C29.09 50.8737 30.4784 49.9415 31.5791 48.7157C32.6798 47.4899 33.4576 46.0093 33.8429 44.4076C34.3479 42.7787 35.1624 42.5019 36.7099 42.9741C36.455 44.9572 35.7539 46.8568 34.6591 48.53C33.5646 50.2031 32.1047 51.6062 30.3897 52.6339C27.5559 54.1837 24.3047 54.7975 21.101 54.3879C17.8973 53.9783 14.9052 52.5662 12.5525 50.3534C10.2249 47.7363 8.81757 44.4299 8.5452 40.938C8.5452 40.3843 8.33344 39.8303 8.21941 39.3091C8.20854 38.3426 8.20312 37.3978 8.20312 36.4746ZM10.9561 35.7741H34.5272C34.3805 28.2647 29.6402 22.938 23.3199 22.8892C16.2828 22.7914 11.2493 28.0041 10.9398 35.7416L10.9561 35.7741Z" fill="black"/>
</g>
<defs>
<clipPath id="clip0_105_121">
<rect width="75" height="75" fill="white"/>
</clipPath>
</defs>
</svg>
