<svg width="75" height="75" viewBox="0 0 75 75" fill="none" xmlns="http://www.w3.org/2000/svg">
<g clip-path="url(#clip0_105_125)">
<path fill-rule="evenodd" clip-rule="evenodd" d="M29.1763 26.4443C26.6249 26.4443 24.8653 27.247 23.8976 28.8735C22.9518 30.5 22.4679 33.0769 22.4679 36.6468C22.4679 40.1955 22.9298 42.7514 23.8536 44.2722C24.7773 45.793 26.5589 46.5746 29.1763 46.5746C31.7936 46.5746 33.5531 45.8143 34.4772 44.3143C35.3789 42.8146 35.8406 40.2588 35.8406 36.689C35.8406 33.098 35.3789 30.5 34.4329 28.8735C33.4872 27.247 31.7276 26.4443 29.1763 26.4443Z" fill="#41CD52"/>
<path fill-rule="evenodd" clip-rule="evenodd" d="M52.3937 49.7376C50.0692 49.7376 48.4758 49.2372 47.6121 48.2364C46.749 47.2359 46.3064 45.3384 46.3064 42.5449V33.5382H43.1634V29.9522H46.3064V24.3233H50.7557V29.9522H56.422V33.559H50.7557V42.0861C50.7557 43.6705 50.8884 44.7129 51.1318 45.2136C51.375 45.7348 52.0172 45.985 53.0133 45.985L56.3777 45.8596L56.577 49.2372C54.762 49.5706 53.3672 49.7376 52.3937 49.7376ZM39.5774 53.782L35.3496 55.6377L31.6975 49.9875C31.166 50.1337 30.3472 50.2172 29.1961 50.2172C24.9241 50.2172 21.9358 49.1329 20.2536 46.9646C18.5713 44.7967 17.7302 41.3566 17.7302 36.6861C17.7302 31.9954 18.5935 28.5138 20.2978 26.2413C22.0022 23.9686 24.9683 22.8219 29.1961 22.8219C33.4239 22.8219 36.3899 23.948 38.0722 26.2205C39.7767 28.4721 40.6178 31.9538 40.6178 36.6656C40.6178 39.772 40.2636 42.2736 39.5774 44.1712C38.8688 46.0893 37.7402 47.5485 36.1465 48.5493L39.5774 53.782ZM63.6823 14.9414H61.4247H13.9894L4.98047 23.4268V51.8016V54.1157V59.995H11.2225H13.4803H60.9155L69.9243 51.5098V23.1347V20.8207V14.9414H63.6823Z" fill="#41CD52"/>
</g>
<defs>
<clipPath id="clip0_105_125">
<rect width="75" height="75" fill="white"/>
</clipPath>
</defs>
</svg>
