<svg width="75" height="75" viewBox="0 0 75 75" fill="none" xmlns="http://www.w3.org/2000/svg">
<g clip-path="url(#clip0_105_129)">
<path d="M37.5003 43.0521C40.519 43.0521 42.9659 40.6049 42.9659 37.5865C42.9659 34.568 40.519 32.1208 37.5003 32.1208C34.4818 32.1208 32.0347 34.568 32.0347 37.5865C32.0347 40.6049 34.4818 43.0521 37.5003 43.0521Z" fill="#00D8FF"/>
<path fill-rule="evenodd" clip-rule="evenodd" d="M37.5006 26.4736C44.8389 26.4736 51.656 27.5266 56.7961 29.2962C62.9892 31.4282 66.7969 34.66 66.7969 37.5864C66.7969 40.6359 62.7615 44.0692 56.1108 46.2727C51.0829 47.9385 44.4665 48.808 37.5006 48.808C30.3586 48.808 23.5954 47.9918 18.5108 46.2542C12.0778 44.0555 8.20312 40.5779 8.20312 37.5864C8.20312 34.6837 11.8387 31.4769 17.9448 29.3482C23.104 27.5494 30.0894 26.4736 37.4994 26.4736H37.5006Z" stroke="#00D8FF" stroke-width="3"/>
<path fill-rule="evenodd" clip-rule="evenodd" d="M27.8265 32.0619C31.4927 25.7051 35.8102 20.3257 39.9111 16.757C44.8518 12.4572 49.5539 10.7733 52.0887 12.235C54.7304 13.7585 55.6887 18.9696 54.2751 25.8314C53.2072 31.0192 50.6543 37.1851 47.1741 43.2196C43.6061 49.4065 39.5206 54.8575 35.4756 58.3931C30.3571 62.8673 25.4087 64.4865 22.8174 62.9921C20.3028 61.5431 19.3413 56.7908 20.5475 50.4378C21.5668 45.0697 24.1246 38.4812 27.8253 32.0619H27.8265Z" stroke="#00D8FF" stroke-width="3"/>
<path fill-rule="evenodd" clip-rule="evenodd" d="M27.8356 43.2358C24.1591 36.886 21.656 30.4576 20.6112 25.1226C19.3535 18.6946 20.2428 13.7799 22.7754 12.3139C25.4146 10.786 30.4078 12.5584 35.6466 17.2101C39.6076 20.7269 43.6749 26.0172 47.165 32.0458C50.7433 38.2269 53.4252 44.4891 54.4684 49.759C55.7885 56.4281 54.7201 61.5237 52.1311 63.0223C49.6192 64.4766 45.0222 62.937 40.1206 58.7189C35.9792 55.1552 31.5483 49.6488 27.8356 43.2358Z" stroke="#00D8FF" stroke-width="3"/>
</g>
<defs>
<clipPath id="clip0_105_129">
<rect width="75" height="75" fill="white"/>
</clipPath>
</defs>
</svg>
