<svg width="75" height="75" viewBox="0 0 75 75" fill="none" xmlns="http://www.w3.org/2000/svg">
<g clip-path="url(#clip0_105_97)">
<path d="M35.1205 9.11613C36.5616 8.29125 38.4384 8.28758 39.878 9.11613C47.1208 13.2086 54.3659 17.2949 61.6075 21.3899C62.9698 22.1571 63.8807 23.673 63.8669 25.2424V49.865C63.8772 51.4995 62.8761 53.0517 61.4391 53.8014C54.22 57.8716 47.0045 61.9465 39.7866 66.0167C38.3162 66.8575 36.4017 66.7928 34.9767 65.8828C32.8125 64.6283 30.6445 63.3797 28.4801 62.1264C28.0378 61.8627 27.5392 61.6529 27.2269 61.224C27.5029 60.8519 27.9966 60.8057 28.3977 60.6431C29.301 60.3557 30.131 59.8945 30.9606 59.4472C31.1707 59.3036 31.4268 59.3587 31.628 59.487C33.4787 60.5481 35.3133 61.6403 37.1701 62.6912C37.5662 62.92 37.9673 62.6162 38.306 62.4275C45.3899 58.4235 52.4827 54.4351 59.5658 50.4299C59.8283 50.3036 59.9733 50.025 59.952 49.7376C59.9569 41.615 59.9531 33.4913 59.9546 25.3687C59.9845 25.0425 59.7958 24.7427 59.5008 24.6091C52.3069 20.5577 45.1163 16.5001 37.9236 12.4477C37.6685 12.2723 37.3318 12.2718 37.0764 12.4464C29.8834 16.5001 22.6945 20.5615 15.5017 24.6126C15.2078 24.7463 15.0105 25.0414 15.0455 25.3687C15.0468 33.4913 15.0455 41.615 15.0455 49.7388C15.02 50.0262 15.1761 50.2989 15.4367 50.4225C17.3561 51.5109 19.2781 52.5917 21.1987 53.6766C22.2807 54.2587 23.6093 54.605 24.8014 54.1588C25.8534 53.7814 26.5908 52.7077 26.5707 51.5909C26.5807 43.5158 26.5658 35.4395 26.5782 27.3656C26.552 27.0071 26.892 26.7109 27.2405 26.7447C28.1629 26.7384 29.0862 26.7323 30.0085 26.7472C30.3935 26.7384 30.6583 27.1244 30.6108 27.4856C30.607 35.6118 30.6208 43.7382 30.6047 51.8643C30.607 54.0302 29.7173 56.3868 27.7141 57.4465C25.2462 58.7247 22.1959 58.4537 19.7578 57.2279C17.6471 56.1744 15.6329 54.931 13.5597 53.8025C12.119 53.0569 11.1229 51.4986 11.133 49.8653V25.2424C11.1179 23.6405 12.0652 22.0971 13.4697 21.3412C20.6875 17.2678 27.9041 13.1912 35.1205 9.11613Z" fill="#81CD39"/>
<path d="M41.4176 26.1723C44.5655 25.9696 47.9355 26.0523 50.7683 27.603C52.9617 28.7915 54.1775 31.2858 54.2162 33.7224C54.155 34.0508 53.8113 34.2322 53.4976 34.2096C52.5844 34.2084 51.6706 34.2222 50.7574 34.2034C50.3698 34.2184 50.1448 33.8613 50.0962 33.5188C49.8337 32.3528 49.1977 31.1982 48.1005 30.6357C46.4159 29.7925 44.463 29.835 42.6261 29.8526C41.2851 29.9235 39.8432 30.0398 38.707 30.8281C37.8349 31.4255 37.57 32.6314 37.8811 33.6026C38.1747 34.2998 38.9795 34.5248 39.6384 34.7323C43.432 35.7245 47.4521 35.6255 51.1734 36.9313C52.7142 37.4636 54.2212 38.4987 54.7485 40.1117C55.4385 42.2738 55.1361 44.8578 53.5978 46.5934C52.3503 48.0216 50.5336 48.7991 48.7216 49.2213C46.311 49.7589 43.8094 49.7727 41.3613 49.5339C39.0595 49.2714 36.6639 48.6667 34.887 47.0985C33.3674 45.7789 32.6253 43.7229 32.6988 41.7389C32.7164 41.4037 33.0501 41.1699 33.3712 41.1975C34.2908 41.1902 35.2107 41.1875 36.1304 41.199C36.498 41.1726 36.7702 41.4902 36.7893 41.8364C36.9586 42.9471 37.3761 44.1131 38.3449 44.7714C40.2141 45.9776 42.5599 45.8949 44.7003 45.9286C46.4736 45.8501 48.4643 45.8264 49.9113 44.6542C50.6748 43.9857 50.901 42.8671 50.6947 41.905C50.4712 41.0926 49.6213 40.7141 48.8915 40.4665C45.1465 39.2821 41.0812 39.7118 37.3726 38.3721C35.8667 37.8401 34.4106 36.834 33.8323 35.2871C33.0252 33.0978 33.3949 30.3896 35.0944 28.7127C36.7515 27.0445 39.1433 26.4022 41.4176 26.1723Z" fill="#81CD39"/>
</g>
<defs>
<clipPath id="clip0_105_97">
<rect width="75" height="75" fill="white"/>
</clipPath>
</defs>
</svg>
