<svg width="75" height="75" viewBox="0 0 75 75" fill="none" xmlns="http://www.w3.org/2000/svg">
<g clip-path="url(#clip0_105_101)">
<path d="M37.2888 8.49609C22.414 8.49609 23.3429 14.9467 23.3429 14.9467L23.3595 21.6294H37.5542V23.6359H17.7215C17.7215 23.6359 8.20312 22.5564 8.20312 37.565C8.20312 52.5738 16.5109 52.0418 16.5109 52.0418H21.4691V45.0771C21.4691 45.0771 21.2019 36.7693 29.6443 36.7693H43.7227C43.7227 36.7693 51.6325 36.8971 51.6325 29.1247V16.2733C51.6325 16.2733 52.8334 8.49609 37.2888 8.49609ZM29.4618 12.9899C30.8742 12.9899 32.0156 14.1314 32.0156 15.5436C32.0156 16.9559 30.8742 18.0974 29.4618 18.0974C28.0496 18.0974 26.9082 16.9559 26.9082 15.5436C26.9082 14.1314 28.0496 12.9899 29.4618 12.9899Z" fill="url(#paint0_linear_105_101)"/>
<path d="M37.7112 66.7846C52.5858 66.7846 51.6571 60.3343 51.6571 60.3343L51.6404 53.6514H37.4457V51.6448H57.2786C57.2786 51.6448 66.7968 52.7244 66.7968 37.7156C66.7968 22.7069 58.4891 23.2392 58.4891 23.2392H53.5309V30.2039C53.5309 30.2039 53.7981 38.5116 45.3556 38.5116H31.2773C31.2773 38.5116 23.3673 38.3836 23.3673 46.156V59.0074C23.3673 59.0074 22.1664 66.7846 37.7112 66.7846ZM45.5381 62.2907C44.1257 62.2907 42.9843 61.1493 42.9843 59.7372C42.9843 58.3248 44.1257 57.1834 45.5381 57.1834C46.9502 57.1834 48.0919 58.3248 48.0919 59.7372C48.0919 61.1493 46.9502 62.2907 45.5381 62.2907Z" fill="url(#paint1_linear_105_101)"/>
</g>
<defs>
<linearGradient id="paint0_linear_105_101" x1="13.834" y1="13.7391" x2="42.871" y2="42.4863" gradientUnits="userSpaceOnUse">
<stop stop-color="#387EB8"/>
<stop offset="1" stop-color="#366994"/>
</linearGradient>
<linearGradient id="paint1_linear_105_101" x1="31.657" y1="32.1987" x2="62.8394" y2="61.6764" gradientUnits="userSpaceOnUse">
<stop stop-color="#FFE052"/>
<stop offset="1" stop-color="#FFC331"/>
</linearGradient>
<clipPath id="clip0_105_101">
<rect width="75" height="75" fill="white"/>
</clipPath>
</defs>
</svg>
