<svg width="75" height="75" viewBox="0 0 75 75" fill="none" xmlns="http://www.w3.org/2000/svg">
<g clip-path="url(#clip0_105_65)">
<mask id="mask0_105_65" style="mask-type:luminance" maskUnits="userSpaceOnUse" x="17" y="8" width="40" height="59">
<path d="M56.9414 8.20312H17.8711V66.7969H56.9414V8.20312Z" fill="white"/>
</mask>
<g mask="url(#mask0_105_65)">
<path d="M27.6406 66.797C33.0314 66.797 37.4063 62.4221 37.4063 57.0314V47.2656H27.6406C22.25 47.2656 17.875 51.6408 17.875 57.0314C17.875 62.4221 22.25 66.797 27.6406 66.797Z" fill="#0ACF83"/>
<path d="M17.875 37.5C17.875 32.1094 22.25 27.7344 27.6406 27.7344H37.4063V47.2655H27.6406C22.25 47.2655 17.875 42.8906 17.875 37.5Z" fill="#A259FF"/>
<path d="M17.8754 17.9687C17.8754 12.5781 22.2504 8.20312 27.641 8.20312H37.4066V27.7344H27.641C22.2504 27.7344 17.8754 23.3594 17.8754 17.9687Z" fill="#F24E1E"/>
<path d="M37.4062 8.20312H47.1718C52.5624 8.20312 56.9376 12.5781 56.9376 17.9687C56.9376 23.3594 52.5624 27.7344 47.1718 27.7344H37.4062V8.20312Z" fill="#FF7262"/>
<path d="M56.9376 37.5C56.9376 42.8906 52.5624 47.2655 47.1718 47.2655C41.7812 47.2655 37.4062 42.8906 37.4062 37.5C37.4062 32.1094 41.7812 27.7344 47.1718 27.7344C52.5624 27.7344 56.9376 32.1094 56.9376 37.5Z" fill="#1ABCFE"/>
</g>
</g>
<defs>
<clipPath id="clip0_105_65">
<rect width="75" height="75" fill="white"/>
</clipPath>
</defs>
</svg>
