<svg width="75" height="75" viewBox="0 0 75 75" fill="none" xmlns="http://www.w3.org/2000/svg">
<g clip-path="url(#clip0_105_82)">
<path d="M37.565 5.27344L66.0478 21.3867V53.6133L37.565 69.7266L9.08203 53.6133V21.3867L37.565 5.27344Z" fill="white"/>
<path d="M60.9615 52.5015L38.5049 65.204V55.3105L52.4965 47.6139L60.9615 52.5015ZM62.4976 51.1105V24.5449L54.2798 29.2876V46.3624L62.4976 51.1105ZM14.0772 52.5015L36.5338 65.204V55.3105L22.542 47.6139L14.0772 52.5015ZM12.541 51.1105V24.5449L20.7588 29.2876V46.3624L12.541 51.1105ZM13.5025 22.8262L36.5338 9.7959V19.3618L21.7793 27.4776L21.6665 27.542L13.5025 22.8262ZM61.5361 22.8262L38.5049 9.7959V19.3618L53.2594 27.4776L53.3722 27.542L61.5361 22.8262Z" fill="#8ED6FB"/>
<path d="M36.5338 53.06L22.73 45.4706V30.4316L36.5338 38.4024V53.06ZM38.5049 53.06L52.3087 45.4706V30.4316L38.5049 38.4024V53.06ZM23.6646 28.6914L37.522 21.0698L51.3794 28.6914L37.522 36.6944L23.6646 28.6914Z" fill="#1C78C0"/>
</g>
<defs>
<clipPath id="clip0_105_82">
<rect width="75" height="75" fill="white"/>
</clipPath>
</defs>
</svg>
